<svg xmlns="http://www.w3.org/2000/svg" viewBox="0 0 800 600"><defs><style>.cls-1{fill:#f0f3f6;}.cls-2{fill:#fff;}.cls-3{fill:#e20883;}.cls-4{fill:#363c44;}.cls-5{fill:#d5dce5;}.cls-6{fill:#ed0080;}.cls-7{fill:#0c1724;}</style></defs><g id="Distributed_Systems" data-name="Distributed Systems"><rect class="cls-1" x="130" y="30" width="540" height="540" transform="translate(700 -100) rotate(90)"/><path class="cls-2" d="M469.71,405.76a5.22,5.22,0,0,0-3.71-1.54h-9.64V352.06a12.68,12.68,0,0,0-12.68-12.66H356.32a12.67,12.67,0,0,0-12.67,12.67v52.15H334a5.26,5.26,0,0,0-5.25,5.26,14.83,14.83,0,0,0,14.83,14.82H456.42a14.82,14.82,0,0,0,14.83-14.83A5.22,5.22,0,0,0,469.71,405.76Z"/><path class="cls-3" d="M432.25,369.1H367.79a2.25,2.25,0,0,1-1.59-.66,2.25,2.25,0,0,1,0-3.18,2.25,2.25,0,0,1,1.59-.66h64.46a2.25,2.25,0,0,1,0,4.5Z"/><path class="cls-3" d="M416.65,381.45H367.79a2.25,2.25,0,0,1-1.59-.66,2.25,2.25,0,0,1,1.59-3.84h48.86a2.21,2.21,0,0,1,1.59.66,2.25,2.25,0,0,1-1.59,3.84Z"/><path class="cls-3" d="M393.75,393.85h-26a2.25,2.25,0,0,1-1.59-.66,2.25,2.25,0,0,1,0-3.18,2.25,2.25,0,0,1,1.59-.66h26a2.28,2.28,0,0,1,1.59.66,2.25,2.25,0,0,1,0,3.18A2.28,2.28,0,0,1,393.75,393.85Z"/><path class="cls-4" d="M348.9,411.72a2.24,2.24,0,0,1-2.25-2.25v-57.4a9.66,9.66,0,0,1,9.67-9.67h87.36a9.66,9.66,0,0,1,9.67,9.67v57.22a2.25,2.25,0,0,1-4.5,0V352.07a5.16,5.16,0,0,0-5.17-5.17H356.32a5.16,5.16,0,0,0-5.17,5.17v57.4a2.25,2.25,0,0,1-2.25,2.25Z"/><path class="cls-5" d="M466,409.47a9.58,9.58,0,0,1-2.81,6.78,9.42,9.42,0,0,1-3.1,2.07,9.61,9.61,0,0,1-3.67.73H343.58a9.61,9.61,0,0,1-3.67-.73,9.42,9.42,0,0,1-3.1-2.07,9.58,9.58,0,0,1-2.81-6.78Z"/><path class="cls-4" d="M456.42,421.3H343.58a11.85,11.85,0,0,1-11.83-11.83,2.25,2.25,0,0,1,2.25-2.25H466a2.25,2.25,0,0,1,2.25,2.25,11.85,11.85,0,0,1-11.83,11.83ZM336.6,411.72a7.37,7.37,0,0,0,7,5.08H456.42a7.37,7.37,0,0,0,7-5.08Z"/><path class="cls-2" d="M278.35,288.24a4.12,4.12,0,0,0-3-1.23h-7.72V245.28a10.14,10.14,0,0,0-10.14-10.13H187.64a10.16,10.16,0,0,0-10.14,10.13V287h-7.71a4.18,4.18,0,0,0-4.2,4.2,11.86,11.86,0,0,0,11.86,11.86h90.28a11.88,11.88,0,0,0,11.86-11.86A4.14,4.14,0,0,0,278.35,288.24Z"/><path class="cls-4" d="M181.7,293a1.81,1.81,0,0,1-1.8-1.8V245.28a7.75,7.75,0,0,1,7.74-7.73h69.89a7.75,7.75,0,0,1,7.74,7.73v45.78a1.8,1.8,0,1,1-3.6,0V245.28a4.13,4.13,0,0,0-4.14-4.13H187.64a4.15,4.15,0,0,0-4.14,4.13v45.93a1.8,1.8,0,0,1-.53,1.27A1.77,1.77,0,0,1,181.7,293Z"/><path class="cls-5" d="M275.39,291.21a7.72,7.72,0,0,1-4.73,7.08,7.78,7.78,0,0,1-2.94.58H177.45a7.73,7.73,0,0,1-2.93-.58,7.65,7.65,0,0,1-4.73-7.08Z"/><path class="cls-4" d="M267.72,300.67H177.45a9.46,9.46,0,0,1-9.46-9.46,1.78,1.78,0,0,1,1.8-1.8h105.6a1.84,1.84,0,0,1,1.27.52,1.81,1.81,0,0,1,.53,1.28,9.47,9.47,0,0,1-9.47,9.46ZM171.87,293a5.89,5.89,0,0,0,5.58,4.06h90.27A5.89,5.89,0,0,0,273.3,293Z"/><path class="cls-6" d="M219.41,282.15a1.53,1.53,0,0,1-.83-.26l-2.7-2.16a7.26,7.26,0,0,1-.8,0l-.8,0-2.63,2.1a1.44,1.44,0,0,1-1.69.05L206.63,280a1.43,1.43,0,0,1-.71-1.47l.52-3.36a10.35,10.35,0,0,1-.76-1.33l-3.18-1.24a1.45,1.45,0,0,1-.91-1.34v-3.94a1.44,1.44,0,0,1,.93-1.35l3.22-1.27a10.5,10.5,0,0,1,.71-1.22l-.51-3.45a1.41,1.41,0,0,1,.69-1.46l3.41-2a1.41,1.41,0,0,1,1.55,0l.07,0,2.72,2.16a10.4,10.4,0,0,1,1.37,0l2.75-2.2a1.49,1.49,0,0,1,1.7-.05l3.33,1.92a1.46,1.46,0,0,1,.7,1.47l-.52,3.46a11.4,11.4,0,0,1,.71,1.22l3.24,1.27a1.43,1.43,0,0,1,.92,1.33v4a1.44,1.44,0,0,1-.93,1.34l-3.17,1.25a11,11,0,0,1-.76,1.32l.52,3.36a1.44,1.44,0,0,1-.69,1.46l-3.41,2A1.31,1.31,0,0,1,219.41,282.15ZM219,280l-.1.06Zm-8,0,.07,0Zm5-2.48a1.44,1.44,0,0,1,.91.32l2.43,1.94,2.46-1.42-.48-3.14a1.44,1.44,0,0,1,.26-1.07,8.23,8.23,0,0,0,.86-1.49,1.42,1.42,0,0,1,.78-.76l3-1.16V267.8l-3-1.19a1.4,1.4,0,0,1-.79-.76,7.91,7.91,0,0,0-.82-1.39,1.42,1.42,0,0,1-.25-1.06l.48-3.24-2.47-1.42-2.55,2a1.48,1.48,0,0,1-1,.31c-.3,0-.61,0-.93,0a3.82,3.82,0,0,0-.59,0,1.45,1.45,0,0,1-1.1-.3l-2.53-2-2.47,1.43.49,3.23a1.49,1.49,0,0,1-.26,1.06,7.63,7.63,0,0,0-.82,1.41,1.45,1.45,0,0,1-.78.74l-3,1.19v2.83l3,1.17a1.45,1.45,0,0,1,.79.77,8.15,8.15,0,0,0,.86,1.48,1.43,1.43,0,0,1,.25,1.07l-.48,3.14,2.47,1.43,2.44-2a1.37,1.37,0,0,1,1.06-.31,8.87,8.87,0,0,0,.89.06c.29,0,.58,0,.88,0Zm.1,2.24h0Zm-.61-.17,0,0Zm-1.07,0h0Zm7.46-.68h0Zm-13.86,0Zm-1.52-3.43,0,0Zm16.9,0Zm-18-1.91v0Zm21.3-3h0Zm-23.52,0h0Zm0-2.44h0Zm23.49,0h0ZM205.6,265v0Zm19,0v0Zm-18.05-1.15Zm17.16,0h0Zm-.15-.59h0Zm-15.35-3.49h0Zm13.84,0Zm-6.5-.6h0Zm-.86,0h0Zm-3.41-.55-.1.06A.21.21,0,0,0,211.23,258.46Zm7.77,0,.07,0Z"/><path class="cls-4" d="M215.08,274.68a5.45,5.45,0,0,1,0-10.89h.13a5.45,5.45,0,0,1,5.32,5.7,5.48,5.48,0,0,1-5.18,5.18ZM215,266a3.14,3.14,0,0,0-2.16.93,3.2,3.2,0,0,0-.93,2.26,3.17,3.17,0,0,0,1,2.32,3.19,3.19,0,0,0,5.39-2.16,3.2,3.2,0,0,0-3.19-3.35Z"/><path class="cls-5" d="M236,249.3a.24.24,0,0,0-.2-.13l-2.59,0a.23.23,0,0,0-.2.14l-.88,2.35a.2.2,0,0,1-.1.12,6.25,6.25,0,0,0-1.06.62.16.16,0,0,1-.15,0l-2.5-.33a.23.23,0,0,0-.21.1l-1.25,2.27a.21.21,0,0,0,0,.24l1.6,1.91a.2.2,0,0,1,0,.15,7.06,7.06,0,0,0,0,1.3.17.17,0,0,1,0,.15l-1.49,2a.2.2,0,0,0,0,.23l1.32,2.22a.23.23,0,0,0,.22.1l2.42-.41a.2.2,0,0,1,.15,0,6.65,6.65,0,0,0,.56.36,5.48,5.48,0,0,0,.6.29.2.2,0,0,1,.11.11l.93,2.26a.21.21,0,0,0,.19.13l2.6,0a.21.21,0,0,0,.19-.14l.86-2.3a.2.2,0,0,1,.11-.11,6.36,6.36,0,0,0,1.11-.68.26.26,0,0,1,.15,0l2.43.33a.19.19,0,0,0,.21-.1l1.26-2.29a.2.2,0,0,0,0-.23L240.83,258a.25.25,0,0,1-.05-.15,5.53,5.53,0,0,0,0-1.22.2.2,0,0,1,0-.15l1.54-2a.2.2,0,0,0,0-.23L241,252a.22.22,0,0,0-.21-.1l-2.5.42a.2.2,0,0,1-.15,0l-.5-.32-.53-.26a.2.2,0,0,1-.11-.11Z"/><path class="cls-4" d="M233.5,266.66a1.33,1.33,0,0,1-1.23-.82l-.79-1.92-.35-.18-.35-.21-2.05.35a1.33,1.33,0,0,1-1.37-.64L226,261a1.32,1.32,0,0,1,0-1.44l1.33-1.72a6.62,6.62,0,0,1,0-.77L226,255.48l-.06-.09a1.32,1.32,0,0,1,0-1.44l1.24-2.24a1.35,1.35,0,0,1,1.35-.68l2.14.29c.19-.12.38-.24.59-.35l.75-2a1.34,1.34,0,0,1,1.25-.87l2.57,0h0a1.32,1.32,0,0,1,1.23.82h0l.83,2,.27.14.29.17,2.14-.36a1.34,1.34,0,0,1,1.37.64l1.33,2.22a1.28,1.28,0,0,1,0,1.44l-1.36,1.77c0,.23,0,.46,0,.68l1.36,1.66.07.09a1.35,1.35,0,0,1,0,1.49l-1.21,2.2a1.35,1.35,0,0,1-1.35.68l-2.07-.28a7,7,0,0,1-.65.39l-.73,2a1.36,1.36,0,0,1-1.25.86l-2.58,0ZM231,261.23a1.32,1.32,0,0,1,.77.24,3.08,3.08,0,0,0,.47.3,3.58,3.58,0,0,0,.48.24,1.35,1.35,0,0,1,.71.7l.69,1.69,1.35,0,.64-1.71a1.31,1.31,0,0,1,.67-.74,5,5,0,0,0,.92-.55,1.27,1.27,0,0,1,1-.26l1.82.24.67-1.2L240,258.72a1.32,1.32,0,0,1-.29-1,5.22,5.22,0,0,0,0-1,1.33,1.33,0,0,1,.26-1l1.16-1.51-.7-1.16-1.88.31a1.31,1.31,0,0,1-1-.22l-.39-.25-.46-.23a1.28,1.28,0,0,1-.68-.69l-.73-1.75-1.35,0-.66,1.77a1.33,1.33,0,0,1-.67.73,5.1,5.1,0,0,0-.88.52,1.31,1.31,0,0,1-1,.25l-1.89-.25-.65,1.18,1.18,1.42a1.29,1.29,0,0,1,.3,1,6.25,6.25,0,0,0,0,1.06,1.37,1.37,0,0,1-.25.95l-1.13,1.45.7,1.15,1.8-.3Zm5.09,3.14h0Zm-4.25-.29h0Zm6.38-.63h0Zm-8.93-1.37h0Zm-.93-.42Zm12.75-.21h0Zm-13.17-1.63,0,.09Zm13.51-.19-.06.09Zm-14-1.41a.07.07,0,0,1,0,0Zm14.5-.33v0Zm-14.49-1.19h0Zm14.45-.21v0Zm-14.05-1.34h0Zm13.54-.35,0,.07Zm-13.15-1.54ZM240,252.6h0Zm-9.7-1.07h0Zm8.43-.15h0Zm-7.66-.08v0Zm7-.07h0Zm-.08,0h0Zm-.5-.49.07,0Zm-4.25-.35h0Zm1.71-.6Z"/><path class="cls-4" d="M234.64,259.16a1.81,1.81,0,0,1-1.71-1.29,1.78,1.78,0,0,1,2.58-2.05l.07,0a1.83,1.83,0,0,1,.78,1,1.79,1.79,0,0,1-.16,1.36,1.77,1.77,0,0,1-1.07.84A1.61,1.61,0,0,1,234.64,259.16Zm.24-2.19-.42.84a.39.39,0,0,0,.25,0l.21-.84Zm-.47.82h0Zm-.2-.23.62-.61Z"/><path class="cls-2" d="M454.67,232.46a4.17,4.17,0,0,0-3-1.23H444V189.5a10.16,10.16,0,0,0-10.14-10.13H364a10.16,10.16,0,0,0-10.14,10.14v41.72H346.1a4.22,4.22,0,0,0-4.2,4.2,11.86,11.86,0,0,0,11.87,11.86H444a11.85,11.85,0,0,0,11.86-11.86A4.14,4.14,0,0,0,454.67,232.46Z"/><path class="cls-4" d="M358,237.23a1.81,1.81,0,0,1-1.8-1.8V189.51a7.75,7.75,0,0,1,7.74-7.74h69.89a7.75,7.75,0,0,1,7.74,7.74v45.78a1.8,1.8,0,0,1-3.6,0V189.51a4.15,4.15,0,0,0-4.14-4.14H364a4.15,4.15,0,0,0-4.14,4.14v45.92a1.81,1.81,0,0,1-1.8,1.8Z"/><path class="cls-5" d="M451.71,235.43a7.52,7.52,0,0,1-.59,2.93,7.63,7.63,0,0,1-7.08,4.73H353.77a7.64,7.64,0,0,1-7.08-4.73,7.51,7.51,0,0,1-.58-2.93Z"/><path class="cls-4" d="M444,244.89H353.77a9.46,9.46,0,0,1-9.46-9.46,1.78,1.78,0,0,1,.52-1.27,1.81,1.81,0,0,1,1.28-.53h105.6a1.81,1.81,0,0,1,1.8,1.8,9.47,9.47,0,0,1-9.47,9.46Zm-95.85-7.66a5.86,5.86,0,0,0,5.58,4.06H444a5.86,5.86,0,0,0,5.58-4.06Z"/><path class="cls-6" d="M395.73,226.37a1.45,1.45,0,0,1-.83-.26L392.2,224l-.8,0c-.27,0-.54,0-.8,0l-2.63,2.1a1.49,1.49,0,0,1-1.7.05l-3.33-1.92a1.46,1.46,0,0,1-.7-1.48l.52-3.36A9.61,9.61,0,0,1,382,218l-3.18-1.25a1.43,1.43,0,0,1-.91-1.34V211.5a1.44,1.44,0,0,1,.92-1.34l3.23-1.27a9.73,9.73,0,0,1,.71-1.22l-.52-3.45a1.43,1.43,0,0,1,.7-1.46l3.41-2a1.37,1.37,0,0,1,1.55,0l.07,0L390.7,203a8.93,8.93,0,0,1,1.37,0l2.75-2.2a1.46,1.46,0,0,1,1.7,0l3.33,1.92a1.44,1.44,0,0,1,.7,1.46l-.52,3.46a11.4,11.4,0,0,1,.71,1.22l3.24,1.27a1.45,1.45,0,0,1,.92,1.34v4a1.46,1.46,0,0,1-.93,1.35L400.8,218a9.61,9.61,0,0,1-.76,1.32l.52,3.36a1.45,1.45,0,0,1-.69,1.47l-3.41,2A1.3,1.3,0,0,1,395.73,226.37Zm-.37-2.17a.27.27,0,0,0-.1.06Zm-8,0,.07.05Zm5.05-2.48a1.47,1.47,0,0,1,.91.33l2.43,1.94,2.46-1.43-.48-3.14a1.47,1.47,0,0,1,.26-1.07,7.6,7.6,0,0,0,.86-1.49,1.4,1.4,0,0,1,.78-.75l3-1.17V212l-3-1.19a1.4,1.4,0,0,1-.79-.76,8.17,8.17,0,0,0-.82-1.39,1.44,1.44,0,0,1-.25-1.07l.48-3.23L395.77,203l-2.55,2a1.48,1.48,0,0,1-1,.31c-.3,0-.61,0-.93,0a3.82,3.82,0,0,0-.59,0,1.41,1.41,0,0,1-1.1-.3L387,203l-2.47,1.43.49,3.23a1.49,1.49,0,0,1-.26,1.06,8.69,8.69,0,0,0-.83,1.41,1.4,1.4,0,0,1-.77.74l-3,1.19v2.84l3,1.16a1.52,1.52,0,0,1,.79.77,8.35,8.35,0,0,0,.85,1.48,1.44,1.44,0,0,1,.26,1.07l-.48,3.14,2.47,1.43,2.43-1.95a1.44,1.44,0,0,1,1.07-.3c.3,0,.59.05.88.05a8.85,8.85,0,0,0,.89-.05Zm.09,2.25h0Zm-.6-.17h0Zm-1.07,0,0,0Zm7.46-.68h0Zm-13.86,0h0ZM383,219.62v0Zm16.9,0h0Zm-18-1.91v0Zm21.3-3h0Zm-23.52,0h0Zm0-2.43h0Zm23.49,0h0Zm-21.23-3v0Zm18.95,0v0ZM382.82,208h0ZM400,208Zm-.15-.6h0Zm-15.35-3.49v0Zm13.84,0Zm-6.5-.6h0Zm-.86,0Zm-3.41-.55-.1.06Zm7.77,0,.07,0Z"/><path class="cls-4" d="M391.4,218.9a5.45,5.45,0,0,1,0-10.89h.13a5.38,5.38,0,0,1,3.82,1.68,5.43,5.43,0,0,1,1.5,4,5.49,5.49,0,0,1-5.18,5.18Zm-.1-8.64a3.21,3.21,0,0,0-2.11,5.51,3.14,3.14,0,0,0,2.36.88,3.21,3.21,0,0,0,3-3,3.2,3.2,0,0,0-3.19-3.34Z"/><path class="cls-5" d="M412.35,193.53a.22.22,0,0,0-.2-.13l-2.59,0a.2.2,0,0,0-.2.14l-.88,2.35a.18.18,0,0,1-.1.11,7.05,7.05,0,0,0-1.06.63.19.19,0,0,1-.15,0l-2.5-.34a.22.22,0,0,0-.21.11l-1.26,2.27a.24.24,0,0,0,0,.23l1.61,1.92a.19.19,0,0,1,0,.15,7.06,7.06,0,0,0,0,1.3.17.17,0,0,1,0,.15l-1.5,1.94a.25.25,0,0,0,0,.24l1.33,2.21a.2.2,0,0,0,.22.1l2.42-.41a.26.26,0,0,1,.15,0,6.65,6.65,0,0,0,.56.36c.2.11.4.2.6.29a.2.2,0,0,1,.11.11l.93,2.25a.21.21,0,0,0,.19.13l2.6,0a.21.21,0,0,0,.19-.13l.86-2.3a.25.25,0,0,1,.11-.12,6.3,6.3,0,0,0,1.11-.67.2.2,0,0,1,.15,0l2.43.33a.2.2,0,0,0,.21-.11l1.26-2.28a.21.21,0,0,0,0-.24l-1.59-1.93a.23.23,0,0,1,0-.15,5.52,5.52,0,0,0,0-1.22.19.19,0,0,1,0-.15l1.54-2a.21.21,0,0,0,0-.24l-1.34-2.22a.19.19,0,0,0-.21-.1l-2.5.42a.17.17,0,0,1-.15,0,5.19,5.19,0,0,0-.5-.31l-.53-.27a.2.2,0,0,1-.11-.11Z"/><path class="cls-4" d="M409.82,210.89a1.32,1.32,0,0,1-1.23-.83l-.79-1.91a3.9,3.9,0,0,1-.35-.19l-.35-.2-2.05.34a1.32,1.32,0,0,1-1.37-.63l-1.33-2.22a1.32,1.32,0,0,1,0-1.44l1.33-1.72a6.45,6.45,0,0,1,0-.76l-1.36-1.62-.07-.09a1.34,1.34,0,0,1,0-1.44l1.24-2.25a1.34,1.34,0,0,1,1.35-.67l2.14.29a4.36,4.36,0,0,1,.59-.35l.75-2a1.34,1.34,0,0,1,1.25-.86l2.57,0a1.31,1.31,0,0,1,1.25.81h0l.84,2,.27.14.29.17,2.14-.36a1.32,1.32,0,0,1,1.37.64l1.33,2.21a1.3,1.3,0,0,1,0,1.45l-1.36,1.77c0,.22,0,.45,0,.68l1.36,1.65.07.09a1.35,1.35,0,0,1,0,1.49l-1.21,2.21a1.33,1.33,0,0,1-1.35.67l-2.07-.28a6.31,6.31,0,0,1-.65.4l-.74,2a1.35,1.35,0,0,1-1.24.87l-2.58,0Zm.85-1.69h0Zm-3.36-3.74a1.32,1.32,0,0,1,.77.24,4.1,4.1,0,0,0,.47.3c.15.08.31.16.48.23a1.35,1.35,0,0,1,.71.7l.69,1.7,1.35,0,.64-1.71a1.28,1.28,0,0,1,.67-.74,5,5,0,0,0,.92-.56,1.36,1.36,0,0,1,1-.26l1.82.25.67-1.21-1.19-1.44a1.32,1.32,0,0,1-.29-1,5.24,5.24,0,0,0,0-1,1.34,1.34,0,0,1,.26-1l1.16-1.5-.7-1.17-1.88.32a1.36,1.36,0,0,1-1-.22,2.59,2.59,0,0,0-.39-.25L413,197a1.31,1.31,0,0,1-.68-.69l-.73-1.75-1.35,0-.66,1.76a1.33,1.33,0,0,1-.68.74,6.2,6.2,0,0,0-.87.51,1.27,1.27,0,0,1-1,.25l-1.89-.25-.66,1.19,1.19,1.41a1.37,1.37,0,0,1,.3,1,6.25,6.25,0,0,0,0,1.06,1.31,1.31,0,0,1-.26.94l-1.12,1.45.7,1.16,1.8-.31Zm5.09,3.14h0Zm-4.25-.3h0Zm6.38-.62h0Zm-8.93-1.37h0Zm-.93-.42Zm12.75-.22ZM404.24,204l.06.09A.47.47,0,0,0,404.24,204Zm13.52-.19-.06.1Zm-14-1.41a.43.43,0,0,0,0,.05Zm14.5-.33v0Zm-14.5-1.18Zm14.46-.22v0Zm-14.05-1.33h0Zm13.54-.36s0,0,0,.08Zm-13.16-1.53h0Zm11.84-.66h0Zm-9.7-1.07h0Zm8.43-.15h0Zm-7.66-.08h0Zm7-.07h0Zm-.08-.05h0Zm-.5-.5.07,0Zm-4.25-.35h0Z"/><path class="cls-4" d="M411,203.39a1.78,1.78,0,0,1-1.55-2.65,1.71,1.71,0,0,1,1.06-.85,1.76,1.76,0,0,1,1.35.15l.08.05a1.79,1.79,0,0,1,.62,2.38,1.75,1.75,0,0,1-1.07.85A2.07,2.07,0,0,1,411,203.39Zm.24-2.19-.42.83a.35.35,0,0,0,.25,0l.21-.85Zm-.47.81h0Zm-.2-.22.62-.62Z"/><path class="cls-2" d="M631,288.24a4.13,4.13,0,0,0-3-1.23h-7.71V245.28a10.16,10.16,0,0,0-10.14-10.13H540.28a10.16,10.16,0,0,0-10.14,10.13V287h-7.72a4.2,4.2,0,0,0-4.2,4.2,11.88,11.88,0,0,0,11.87,11.86h90.27a11.86,11.86,0,0,0,11.86-11.86A4.13,4.13,0,0,0,631,288.24Z"/><path class="cls-4" d="M534.34,293a1.81,1.81,0,0,1-1.8-1.8V245.28a7.75,7.75,0,0,1,7.74-7.73h69.89a7.75,7.75,0,0,1,7.74,7.73v45.78a1.8,1.8,0,1,1-3.6,0V245.28a4.15,4.15,0,0,0-4.14-4.13H540.28a4.15,4.15,0,0,0-4.14,4.13v45.93a1.8,1.8,0,0,1-.53,1.27A1.77,1.77,0,0,1,534.34,293Z"/><path class="cls-5" d="M628,291.21a7.68,7.68,0,0,1-4.73,7.08,7.69,7.69,0,0,1-2.93.58H530.09a7.78,7.78,0,0,1-2.94-.58,7.7,7.7,0,0,1-4.73-7.08Z"/><path class="cls-4" d="M620.36,300.67H530.09a9.47,9.47,0,0,1-9.47-9.46,1.81,1.81,0,0,1,.53-1.28,1.84,1.84,0,0,1,1.27-.52H628a1.78,1.78,0,0,1,1.8,1.8,9.46,9.46,0,0,1-9.46,9.46ZM524.51,293a5.89,5.89,0,0,0,5.58,4.06h90.27a5.89,5.89,0,0,0,5.58-4.06Z"/><path class="cls-6" d="M572.05,282.15a1.53,1.53,0,0,1-.83-.26l-2.7-2.16a7.26,7.26,0,0,1-.8,0l-.8,0-2.63,2.1a1.46,1.46,0,0,1-1.7.05L559.26,280a1.45,1.45,0,0,1-.7-1.47l.52-3.36a10.35,10.35,0,0,1-.76-1.33l-3.18-1.24a1.45,1.45,0,0,1-.91-1.34v-3.94a1.45,1.45,0,0,1,.92-1.35l3.23-1.27a10.5,10.5,0,0,1,.71-1.22l-.52-3.45a1.44,1.44,0,0,1,.7-1.46l3.41-2a1.41,1.41,0,0,1,1.55,0l.06,0,2.73,2.16a10.25,10.25,0,0,1,1.36,0l2.76-2.2a1.49,1.49,0,0,1,1.7-.05l3.32,1.92a1.45,1.45,0,0,1,.71,1.47l-.52,3.46a11.4,11.4,0,0,1,.71,1.22l3.24,1.27a1.43,1.43,0,0,1,.92,1.33v4a1.44,1.44,0,0,1-.93,1.34l-3.17,1.25a11,11,0,0,1-.76,1.32l.52,3.36a1.44,1.44,0,0,1-.69,1.46l-3.42,2A1.25,1.25,0,0,1,572.05,282.15Zm-.37-2.18-.1.06Zm-8,0,.07,0Zm5-2.48a1.46,1.46,0,0,1,.91.32l2.43,1.94,2.46-1.42-.48-3.14a1.4,1.4,0,0,1,.26-1.07,8.23,8.23,0,0,0,.86-1.49,1.42,1.42,0,0,1,.78-.76l3-1.16V267.8l-3-1.19a1.4,1.4,0,0,1-.79-.76,8.58,8.58,0,0,0-.82-1.39,1.42,1.42,0,0,1-.25-1.06l.48-3.24-2.47-1.42-2.55,2a1.48,1.48,0,0,1-1,.31c-.3,0-.61,0-.93,0a3.82,3.82,0,0,0-.59,0,1.45,1.45,0,0,1-1.1-.3l-2.53-2-2.47,1.43.48,3.23a1.43,1.43,0,0,1-.25,1.06,8.28,8.28,0,0,0-.83,1.41,1.43,1.43,0,0,1-.77.74l-3,1.19v2.83l3,1.17a1.44,1.44,0,0,1,.8.77,8.72,8.72,0,0,0,.85,1.48,1.42,1.42,0,0,1,.26,1.08l-.48,3.13,2.47,1.43,2.43-2a1.41,1.41,0,0,1,1.07-.31c.3,0,.59.05.88.06a8.85,8.85,0,0,0,.89,0Zm.09,2.24h0Zm-.6-.17,0,0Zm-1.07,0h0Zm7.46-.68h0Zm-13.86,0Zm-1.52-3.43v0Zm16.9,0Zm-17-.61v0Zm-1-1.3v0Zm21.3-3h0Zm-23.53,0h0Zm0-2.44h0Zm23.49,0h0ZM558.24,265v0Zm19,0v0Zm-18.05-1.15Zm17.16,0h0Zm-.15-.59h0Zm-15.35-3.49h0Zm13.84,0Zm-6.5-.6h0Zm-.87,0h0Zm-3.4-.55-.1.06A.27.27,0,0,0,563.87,258.46Zm7.77,0,.07,0Z"/><path class="cls-4" d="M567.72,274.68a5.45,5.45,0,0,1,0-10.89h.13a5.45,5.45,0,0,1,5.32,5.7,5.48,5.48,0,0,1-5.18,5.18Zm-.1-8.64a3.14,3.14,0,0,0-2.16.93,3.2,3.2,0,0,0-.93,2.26,3.13,3.13,0,0,0,1,2.31,3.18,3.18,0,0,0,5.39-2.15,3.2,3.2,0,0,0-3.19-3.35Z"/><path class="cls-5" d="M588.67,249.3a.24.24,0,0,0-.2-.13l-2.59,0a.23.23,0,0,0-.2.14l-.88,2.35a.2.2,0,0,1-.1.12,6.25,6.25,0,0,0-1.06.62.16.16,0,0,1-.15,0l-2.5-.33a.23.23,0,0,0-.21.1l-1.26,2.27a.25.25,0,0,0,0,.24l1.61,1.91a.2.2,0,0,1,0,.15,7.06,7.06,0,0,0,0,1.3.17.17,0,0,1,0,.15l-1.5,2a.24.24,0,0,0,0,.23l1.33,2.22a.23.23,0,0,0,.22.1l2.42-.41a.2.2,0,0,1,.15,0,6.65,6.65,0,0,0,.56.36,5.48,5.48,0,0,0,.6.29.2.2,0,0,1,.11.11l.93,2.26a.21.21,0,0,0,.19.13l2.6,0a.21.21,0,0,0,.19-.14l.86-2.3a.22.22,0,0,1,.1-.11,6.08,6.08,0,0,0,1.12-.68.26.26,0,0,1,.15,0l2.43.33a.19.19,0,0,0,.21-.1l1.26-2.29a.2.2,0,0,0,0-.23L593.47,258a.2.2,0,0,1-.05-.15,5.53,5.53,0,0,0,0-1.22.2.2,0,0,1,0-.15l1.54-2a.2.2,0,0,0,0-.23L593.64,252a.22.22,0,0,0-.21-.1l-2.5.42a.23.23,0,0,1-.16,0c-.16-.11-.32-.22-.5-.32l-.53-.26a.29.29,0,0,1-.11-.11Z"/><path class="cls-4" d="M586.14,266.66a1.33,1.33,0,0,1-1.24-.83l-.78-1.91-.35-.18-.35-.21-2,.35a1.32,1.32,0,0,1-1.37-.64L578.67,261a1.32,1.32,0,0,1,0-1.44l1.32-1.72c0-.26,0-.52,0-.77l-1.36-1.62-.07-.09a1.32,1.32,0,0,1,0-1.44l1.24-2.24a1.35,1.35,0,0,1,1.35-.68l2.14.29c.19-.12.38-.24.58-.35l.76-2a1.34,1.34,0,0,1,1.25-.87l2.57,0h0a1.33,1.33,0,0,1,1.23.82h0l.84,2,.27.14.29.17,2.14-.36a1.34,1.34,0,0,1,1.37.64l1.33,2.22a1.28,1.28,0,0,1,0,1.45l-1.35,1.76c0,.23,0,.46,0,.68l1.36,1.66a1.35,1.35,0,0,1,.1,1.52L594.79,263a1.35,1.35,0,0,1-1.35.68l-2.07-.28c-.21.14-.43.27-.65.39l-.74,2a1.34,1.34,0,0,1-1.25.86l-2.57,0ZM587,265Zm-3.36-3.75a1.32,1.32,0,0,1,.77.24,3.08,3.08,0,0,0,.47.3,3.58,3.58,0,0,0,.48.24,1.3,1.3,0,0,1,.71.71l.69,1.68,1.35,0,.64-1.71a1.31,1.31,0,0,1,.67-.74,5,5,0,0,0,.92-.55,1.27,1.27,0,0,1,1-.26l1.82.24.67-1.21-1.19-1.43a1.32,1.32,0,0,1-.29-1,5.22,5.22,0,0,0,0-1,1.33,1.33,0,0,1,.26-1l1.16-1.51-.7-1.16-1.88.31a1.31,1.31,0,0,1-1-.21c-.13-.09-.26-.18-.4-.26l-.46-.23a1.26,1.26,0,0,1-.68-.7l-.73-1.74-1.35,0-.66,1.77a1.31,1.31,0,0,1-.68.73,5.41,5.41,0,0,0-.87.52,1.31,1.31,0,0,1-1,.25l-1.89-.25-.66,1.18L582,256a1.33,1.33,0,0,1,.3,1,4.7,4.7,0,0,0,0,1.06,1.33,1.33,0,0,1-.26.95l-1.12,1.45.7,1.15,1.8-.3Zm5.09,3.14h0Zm-4.25-.29h0Zm6.38-.63h0Zm-8.93-1.37h0Zm-.93-.42Zm12.75-.21Zm-13.18-1.63.06.09Zm13.57-.29h0Zm-14.08-1.31a.43.43,0,0,1,0,0Zm14.5-.33a.09.09,0,0,1,0,.05A.09.09,0,0,0,594.55,257.89Zm-14.5-1.19h0Zm14.46-.21v0Zm-14-1.34h0Zm13.53-.36.06.09Zm-13.15-1.53h0Zm11.84-.66h0Zm-9.7-1.07h0Zm.77-.23v0Zm7-.07h0Zm-.08-.06h0Zm-.5-.48.07,0Zm-4.25-.35h0Z"/><path class="cls-4" d="M587.28,259.16a1.78,1.78,0,1,1,.86-3.34l.08,0a1.83,1.83,0,0,1,.78,1,1.79,1.79,0,0,1-.16,1.36,1.77,1.77,0,0,1-1.07.84A1.66,1.66,0,0,1,587.28,259.16Zm.24-2.19-.42.84a.42.42,0,0,0,.25,0l.21-.85Zm-.47.82h0Zm-.2-.23.62-.61Z"/><rect class="cls-5" x="388.97" y="266.64" width="3" height="40.47"/><polygon class="cls-5" points="382.99 304.92 390.47 317.87 397.95 304.92 382.99 304.92"/><rect class="cls-5" x="386.9" y="296.13" width="40.47" height="3" transform="translate(102.92 699.87) rotate(-89.07)"/><polygon class="cls-5" points="399.95 279.46 407.63 266.63 414.9 279.71 399.95 279.46"/><rect class="cls-5" x="293.03" y="315.15" width="3" height="40.47" transform="translate(-150.88 306.41) rotate(-44.99)"/><polygon class="cls-5" points="302 353.44 316.44 357.31 312.58 342.86 302 353.44"/><rect class="cls-5" x="312.42" y="310.98" width="3" height="40.47" transform="translate(-142 311.62) rotate(-44.08)"/><polygon class="cls-5" points="295.99 323.45 292.35 308.94 306.74 313.04 295.99 323.45"/><rect class="cls-5" x="468.41" y="321.74" width="40.47" height="3" transform="translate(-85.5 439.94) rotate(-44.97)"/><polygon class="cls-5" points="470.6 330.7 466.72 345.15 481.17 341.29 470.6 330.7"/><rect class="cls-5" x="472.58" y="341.13" width="40.47" height="3" transform="translate(-99.61 439.02) rotate(-44.05)"/><polygon class="cls-5" points="500.58 324.7 515.09 321.07 510.99 335.45 500.58 324.7"/><path class="cls-7" d="M303.53,455.58v-13.8h3.16l4.08,9.64,4.08-9.64H318v13.8h-2.84v-8.84l-3.36,7.94h-2l-3.36-7.94v8.84Z"/><path class="cls-7" d="M327,455.58l-.18-1.12a3.21,3.21,0,0,1-1.17.94,4.43,4.43,0,0,1-2,.38A3.89,3.89,0,0,1,321,455a2.83,2.83,0,0,1-1-2.24,2.91,2.91,0,0,1,.48-1.77,2.8,2.8,0,0,1,1.27-1,6.7,6.7,0,0,1,1.75-.44l2.08-.28a1.72,1.72,0,0,0,.71-.22.56.56,0,0,0,.17-.44,1.4,1.4,0,0,0-.38-1,1.67,1.67,0,0,0-1.32-.43,2.18,2.18,0,0,0-1.25.34,1.31,1.31,0,0,0-.59,1h-2.6a3.3,3.3,0,0,1,.55-1.77,3.65,3.65,0,0,1,1.55-1.3A5.65,5.65,0,0,1,325,445a4.35,4.35,0,0,1,3.21,1.11,4.18,4.18,0,0,1,1.11,3.09v6.36Zm-.38-3.5V451l-2.28.3a2.24,2.24,0,0,0-1.08.38.93.93,0,0,0-.38.8,1,1,0,0,0,.43.86,2,2,0,0,0,1.17.3,2.94,2.94,0,0,0,1.48-.38A1.3,1.3,0,0,0,326.57,452.08Z"/><path class="cls-7" d="M331.61,455.58V445.22H334l.2,1.3a3.2,3.2,0,0,1,1.19-1.08,3.94,3.94,0,0,1,1.89-.42,3.59,3.59,0,0,1,2.59.93,3.73,3.73,0,0,1,1,2.83v6.8h-2.8v-6.3c0-1.18-.55-1.76-1.64-1.76a2.26,2.26,0,0,0-1.4.46,1.56,1.56,0,0,0-.62,1.34v6.26Z"/><path class="cls-7" d="M349.61,455.58l-.18-1.12a3.21,3.21,0,0,1-1.17.94,4.43,4.43,0,0,1-1.95.38,3.89,3.89,0,0,1-2.61-.82,2.83,2.83,0,0,1-.95-2.24,2.91,2.91,0,0,1,.48-1.77,2.8,2.8,0,0,1,1.27-1,6.7,6.7,0,0,1,1.75-.44l2.08-.28A1.72,1.72,0,0,0,349,449a.56.56,0,0,0,.17-.44,1.4,1.4,0,0,0-.38-1,1.67,1.67,0,0,0-1.32-.43,2.18,2.18,0,0,0-1.25.34,1.31,1.31,0,0,0-.59,1h-2.6a3.3,3.3,0,0,1,.55-1.77,3.65,3.65,0,0,1,1.55-1.3,5.65,5.65,0,0,1,2.48-.49,4.35,4.35,0,0,1,3.21,1.11,4.18,4.18,0,0,1,1.11,3.09v6.36Zm-.38-3.5V451l-2.28.3a2.24,2.24,0,0,0-1.08.38.93.93,0,0,0-.38.8,1,1,0,0,0,.43.86,2,2,0,0,0,1.17.3,2.94,2.94,0,0,0,1.48-.38A1.3,1.3,0,0,0,349.23,452.08Z"/><path class="cls-7" d="M363.51,456.14a2.92,2.92,0,0,1-1.29,2.54,7,7,0,0,1-4,.9,6.76,6.76,0,0,1-3.73-.79,2.34,2.34,0,0,1-1.13-2,1.65,1.65,0,0,1,.55-1.37,3,3,0,0,1,1.15-.61,2.39,2.39,0,0,1-.75-.67,2.1,2.1,0,0,1,.08-2.32,2.33,2.33,0,0,1,1.09-.77,2.75,2.75,0,0,1-1.13-1.14,3.43,3.43,0,0,1-.35-1.52,3.12,3.12,0,0,1,1.09-2.46,4.76,4.76,0,0,1,3.23-1,6.25,6.25,0,0,1,1.43.14,4.66,4.66,0,0,1,1.11.38h2.88v1.86l-1.32-.06a2.08,2.08,0,0,1,.28.58,2.28,2.28,0,0,1,.1.72,2.8,2.8,0,0,1-.45,1.51A3.24,3.24,0,0,1,361,451.3a6.37,6.37,0,0,1-2.56.44,9.25,9.25,0,0,1-1.34-.1,1,1,0,0,0-.48.35.75.75,0,0,0-.14.41c0,.45.29.68.88.68h2.58a3.91,3.91,0,0,1,2.7.82A2.84,2.84,0,0,1,363.51,456.14Zm-4.14-.92h-2.1a1.31,1.31,0,0,0-.74.25.85.85,0,0,0-.38.77,1.1,1.1,0,0,0,.53.88,3,3,0,0,0,1.71.38,3.26,3.26,0,0,0,1.79-.38,1.12,1.12,0,0,0,.55-.94.8.8,0,0,0-.38-.72A1.8,1.8,0,0,0,359.37,455.22Zm-2.62-6.8a1.13,1.13,0,0,0,.42.92,2.06,2.06,0,0,0,1.28.34,2.08,2.08,0,0,0,1.3-.34,1.13,1.13,0,0,0,.42-.92,1.17,1.17,0,0,0-.42-.94,2,2,0,0,0-1.3-.36,1.94,1.94,0,0,0-1.28.36A1.17,1.17,0,0,0,356.75,448.42Z"/><path class="cls-7" d="M365.33,443.88v-2.6h3v2.6Zm.08,11.7V445.22h2.8v10.36Z"/><path class="cls-7" d="M370.61,455.58V445.22H373l.2,1.3a3.2,3.2,0,0,1,1.19-1.08,3.88,3.88,0,0,1,1.89-.42,3.59,3.59,0,0,1,2.59.93,3.73,3.73,0,0,1,1,2.83v6.8h-2.8v-6.3c0-1.18-.55-1.76-1.64-1.76a2.26,2.26,0,0,0-1.4.46,1.56,1.56,0,0,0-.62,1.34v6.26Z"/><path class="cls-7" d="M391.41,456.14a2.92,2.92,0,0,1-1.29,2.54,7,7,0,0,1-4,.9,6.76,6.76,0,0,1-3.73-.79,2.34,2.34,0,0,1-1.13-2,1.65,1.65,0,0,1,.55-1.37,3,3,0,0,1,1.15-.61,2.39,2.39,0,0,1-.75-.67,2.1,2.1,0,0,1,.08-2.32,2.33,2.33,0,0,1,1.09-.77,2.75,2.75,0,0,1-1.13-1.14,3.43,3.43,0,0,1-.35-1.52A3.12,3.12,0,0,1,383,446a4.76,4.76,0,0,1,3.23-1,6.25,6.25,0,0,1,1.43.14,4.66,4.66,0,0,1,1.11.38h2.88v1.86l-1.32-.06a2.08,2.08,0,0,1,.28.58,2.28,2.28,0,0,1,.1.72,2.8,2.8,0,0,1-.45,1.51,3.24,3.24,0,0,1-1.43,1.15,6.37,6.37,0,0,1-2.56.44,9.25,9.25,0,0,1-1.34-.1,1,1,0,0,0-.48.35.75.75,0,0,0-.14.41c0,.45.29.68.88.68h2.58a3.91,3.91,0,0,1,2.7.82A2.84,2.84,0,0,1,391.41,456.14Zm-4.14-.92h-2.1a1.31,1.31,0,0,0-.74.25.85.85,0,0,0-.38.77,1.1,1.1,0,0,0,.53.88,3,3,0,0,0,1.71.38,3.26,3.26,0,0,0,1.79-.38,1.12,1.12,0,0,0,.55-.94.8.8,0,0,0-.38-.72A1.8,1.8,0,0,0,387.27,455.22Zm-2.62-6.8a1.13,1.13,0,0,0,.42.92,2.06,2.06,0,0,0,1.28.34,2.08,2.08,0,0,0,1.3-.34,1.13,1.13,0,0,0,.42-.92,1.17,1.17,0,0,0-.42-.94,2,2,0,0,0-1.3-.36,1.94,1.94,0,0,0-1.28.36A1.17,1.17,0,0,0,384.65,448.42Z"/><path class="cls-7" d="M404,455.58l-.18-1.12a3.21,3.21,0,0,1-1.17.94,4.43,4.43,0,0,1-1.95.38,3.89,3.89,0,0,1-2.61-.82,2.83,2.83,0,0,1-.95-2.24,2.91,2.91,0,0,1,.48-1.77,2.8,2.8,0,0,1,1.27-1,6.7,6.7,0,0,1,1.75-.44l2.08-.28a1.72,1.72,0,0,0,.71-.22.56.56,0,0,0,.17-.44,1.4,1.4,0,0,0-.38-1,1.67,1.67,0,0,0-1.32-.43,2.18,2.18,0,0,0-1.25.34,1.31,1.31,0,0,0-.59,1h-2.6a3.3,3.3,0,0,1,.55-1.77,3.65,3.65,0,0,1,1.55-1.3,5.65,5.65,0,0,1,2.48-.49,4.35,4.35,0,0,1,3.21,1.11,4.18,4.18,0,0,1,1.11,3.09v6.36Zm-.38-3.5V451l-2.28.3a2.24,2.24,0,0,0-1.08.38.93.93,0,0,0-.38.8,1,1,0,0,0,.43.86,2,2,0,0,0,1.17.3,2.94,2.94,0,0,0,1.48-.38A1.3,1.3,0,0,0,403.65,452.08Z"/><path class="cls-7" d="M408.69,459.38V445.22h2.42l.22,1.32a3,3,0,0,1,1.28-1.12,4.16,4.16,0,0,1,1.86-.4,3.93,3.93,0,0,1,2.37.7,4.35,4.35,0,0,1,1.48,1.9,6.94,6.94,0,0,1,.51,2.74,7,7,0,0,1-.52,2.77,4.53,4.53,0,0,1-1.51,1.94,4.13,4.13,0,0,1-2.45.71,3.44,3.44,0,0,1-2.86-1.26v4.86Zm2.8-10v2a1.59,1.59,0,0,0,.67,1.43,2.61,2.61,0,0,0,1.49.45,2,2,0,0,0,1.73-.8,4.19,4.19,0,0,0,0-4.27,2,2,0,0,0-1.72-.81,2.65,2.65,0,0,0-1,.21,1.91,1.91,0,0,0-.82.64A1.81,1.81,0,0,0,411.49,449.42Z"/><path class="cls-7" d="M420.77,459.38V445.22h2.42l.22,1.32a3,3,0,0,1,1.28-1.12,4.16,4.16,0,0,1,1.86-.4,3.93,3.93,0,0,1,2.37.7,4.35,4.35,0,0,1,1.48,1.9,6.94,6.94,0,0,1,.51,2.74,7,7,0,0,1-.52,2.77,4.53,4.53,0,0,1-1.51,1.94,4.13,4.13,0,0,1-2.45.71,3.44,3.44,0,0,1-2.86-1.26v4.86Zm2.8-10v2a1.59,1.59,0,0,0,.67,1.43,2.61,2.61,0,0,0,1.49.45,2,2,0,0,0,1.73-.8,4.19,4.19,0,0,0,0-4.27,2,2,0,0,0-1.72-.81,2.65,2.65,0,0,0-1,.21,1.91,1.91,0,0,0-.82.64A1.81,1.81,0,0,0,423.57,449.42Z"/><path class="cls-7" d="M432.85,455.58v-14.3h2.8v14.3Z"/><path class="cls-7" d="M438,443.88v-2.6h3v2.6Zm.08,11.7V445.22h2.8v10.36Z"/><path class="cls-7" d="M450,451.66h2.7a5,5,0,0,1-.66,2,4.23,4.23,0,0,1-1.58,1.53,5.1,5.1,0,0,1-2.52.58,5.55,5.55,0,0,1-2.82-.67,4.24,4.24,0,0,1-1.71-1.87,6.42,6.42,0,0,1-.57-2.78,6.5,6.5,0,0,1,.58-2.83,4.35,4.35,0,0,1,1.73-1.92,5.42,5.42,0,0,1,2.83-.69,4.89,4.89,0,0,1,2.5.58,4,4,0,0,1,1.53,1.51,5,5,0,0,1,.63,2h-2.7a1.87,1.87,0,0,0-2-1.68,2,2,0,0,0-1.68.79,3.63,3.63,0,0,0-.58,2.21,3.5,3.5,0,0,0,.57,2.11,2,2,0,0,0,1.67.77,2.14,2.14,0,0,0,1.36-.42A2,2,0,0,0,450,451.66Z"/><path class="cls-7" d="M461,455.58l-.18-1.12a3.21,3.21,0,0,1-1.17.94,4.43,4.43,0,0,1-2,.38A3.89,3.89,0,0,1,455,455a2.83,2.83,0,0,1-1-2.24,2.91,2.91,0,0,1,.48-1.77,2.8,2.8,0,0,1,1.27-1,6.7,6.7,0,0,1,1.75-.44l2.08-.28a1.72,1.72,0,0,0,.71-.22.56.56,0,0,0,.17-.44,1.4,1.4,0,0,0-.38-1,1.67,1.67,0,0,0-1.32-.43,2.18,2.18,0,0,0-1.25.34,1.31,1.31,0,0,0-.59,1h-2.6a3.3,3.3,0,0,1,.55-1.77,3.65,3.65,0,0,1,1.55-1.3A5.65,5.65,0,0,1,459,445a4.35,4.35,0,0,1,3.21,1.11,4.18,4.18,0,0,1,1.11,3.09v6.36Zm-.38-3.5V451l-2.28.3a2.24,2.24,0,0,0-1.08.38.93.93,0,0,0-.38.8,1,1,0,0,0,.43.86,2,2,0,0,0,1.17.3,2.94,2.94,0,0,0,1.48-.38A1.3,1.3,0,0,0,460.57,452.08Z"/><path class="cls-7" d="M466.25,452.6v-5.12h-1.68V445.3h1.06a1,1,0,0,0,.58-.13.85.85,0,0,0,.2-.57l.3-2.38H469v3h2.34v2.26h-2.32v4.64a1.46,1.46,0,0,0,.29,1,1.54,1.54,0,0,0,1.11.3h1.12v2.18c-.25,0-.56.07-.93.11s-.74,0-1.11,0A3.42,3.42,0,0,1,467,455,3.27,3.27,0,0,1,466.25,452.6Z"/><path class="cls-7" d="M473.43,443.88v-2.6h3v2.6Zm.08,11.7V445.22h2.8v10.36Z"/><path class="cls-7" d="M483.43,455.78a5.63,5.63,0,0,1-2.88-.68,4.27,4.27,0,0,1-1.73-1.89,6.5,6.5,0,0,1-.57-2.79,6.35,6.35,0,0,1,.58-2.81,4.32,4.32,0,0,1,1.74-1.9,5.48,5.48,0,0,1,2.86-.69,5.55,5.55,0,0,1,2.89.68,4.29,4.29,0,0,1,1.72,1.88,6.45,6.45,0,0,1,.57,2.8,6.58,6.58,0,0,1-.58,2.8,4.38,4.38,0,0,1-1.73,1.91A5.52,5.52,0,0,1,483.43,455.78Zm0-2.44a2,2,0,0,0,1.73-.78,3.57,3.57,0,0,0,.59-2.18,3.48,3.48,0,0,0-.59-2.15,2.33,2.33,0,0,0-3.46,0,3.55,3.55,0,0,0-.59,2.19,3.5,3.5,0,0,0,.59,2.15A2.05,2.05,0,0,0,483.43,453.34Z"/><path class="cls-7" d="M490.55,455.58V445.22H493l.2,1.3a3.13,3.13,0,0,1,1.19-1.08,3.88,3.88,0,0,1,1.89-.42,3.59,3.59,0,0,1,2.59.93,3.77,3.77,0,0,1,1,2.83v6.8H497v-6.3c0-1.18-.55-1.76-1.64-1.76a2.26,2.26,0,0,0-1.4.46,1.56,1.56,0,0,0-.62,1.34v6.26Z"/><path class="cls-7" d="M193.66,214.5V202.08h2.47l5.29,8.39v-8.39H204V214.5h-2.47l-5.29-8.39v8.39Z"/><path class="cls-7" d="M210.53,214.68a5,5,0,0,1-2.59-.61,3.83,3.83,0,0,1-1.56-1.7,5.89,5.89,0,0,1-.51-2.51,5.75,5.75,0,0,1,.52-2.53,3.88,3.88,0,0,1,1.57-1.71,4.87,4.87,0,0,1,2.57-.62,5,5,0,0,1,2.6.61,3.79,3.79,0,0,1,1.55,1.69,5.84,5.84,0,0,1,.51,2.52,5.76,5.76,0,0,1-.52,2.52,4,4,0,0,1-1.56,1.72A5,5,0,0,1,210.53,214.68Zm0-2.2a1.84,1.84,0,0,0,1.56-.7,3.22,3.22,0,0,0,.53-2,3.17,3.17,0,0,0-.53-1.94,2.11,2.11,0,0,0-3.12,0,3.24,3.24,0,0,0-.53,2,3.14,3.14,0,0,0,.53,1.93A1.85,1.85,0,0,0,210.53,212.48Z"/><path class="cls-7" d="M223.47,214.5l-.2-1.19a2.76,2.76,0,0,1-1.15,1,3.76,3.76,0,0,1-1.67.36,3.53,3.53,0,0,1-2.13-.63,3.93,3.93,0,0,1-1.34-1.72,6.82,6.82,0,0,1,0-5,4.06,4.06,0,0,1,1.36-1.75,3.72,3.72,0,0,1,2.21-.63,3.08,3.08,0,0,1,2.57,1.13v-4.5h2.52V214.5Zm-.34-3.78v-1.84a1.44,1.44,0,0,0-.6-1.28,2.38,2.38,0,0,0-1.34-.41,1.81,1.81,0,0,0-1.56.72,3.13,3.13,0,0,0-.53,1.93,3.18,3.18,0,0,0,.52,1.91,1.77,1.77,0,0,0,1.55.73,2.31,2.31,0,0,0,.93-.19,1.69,1.69,0,0,0,.74-.58A1.64,1.64,0,0,0,223.13,210.72Z"/><path class="cls-7" d="M236.27,211.67a3.08,3.08,0,0,1-.63,1.47,3.82,3.82,0,0,1-1.44,1.12,5.35,5.35,0,0,1-2.23.42,5,5,0,0,1-2.55-.6,3.77,3.77,0,0,1-1.52-1.69,5.75,5.75,0,0,1-.5-2.48,5.9,5.9,0,0,1,.52-2.55,3.94,3.94,0,0,1,1.55-1.73A4.7,4.7,0,0,1,232,205a4.52,4.52,0,0,1,2.42.6,3.8,3.8,0,0,1,1.46,1.64,5.51,5.51,0,0,1,.48,2.35c0,.15,0,.32,0,.5s0,.34,0,.47H230a2.88,2.88,0,0,0,.62,1.58,1.79,1.79,0,0,0,1.45.58,2.28,2.28,0,0,0,1.15-.27,1.43,1.43,0,0,0,.65-.78Zm-4.21-4.8c-1.12,0-1.8.64-2,1.94h3.32a.52.52,0,0,0,.36-.09.38.38,0,0,0,.1-.3,1.55,1.55,0,0,0-.45-1.07A1.68,1.68,0,0,0,232.06,206.87Z"/><path class="cls-7" d="M245.76,214.5V206h-3v-2.16h2a1.39,1.39,0,0,0,.83-.18,1.15,1.15,0,0,0,.32-.76l.11-.63h2.27V214.5Z"/><path class="cls-7" d="M368.22,155V142.61h2.46L376,151v-8.39h2.56V155h-2.47l-5.29-8.38V155Z"/><path class="cls-7" d="M385.08,155.21a5,5,0,0,1-2.59-.61,3.77,3.77,0,0,1-1.56-1.7,6.42,6.42,0,0,1,0-5,4,4,0,0,1,1.57-1.71,5.74,5.74,0,0,1,5.17,0,3.84,3.84,0,0,1,1.55,1.69,5.84,5.84,0,0,1,.51,2.52,5.76,5.76,0,0,1-.52,2.52,3.88,3.88,0,0,1-1.56,1.72A4.88,4.88,0,0,1,385.08,155.21Zm0-2.19a1.86,1.86,0,0,0,1.56-.7,3.25,3.25,0,0,0,.53-2,3.14,3.14,0,0,0-.53-1.93,2.11,2.11,0,0,0-3.12,0,3.21,3.21,0,0,0-.53,2,3.17,3.17,0,0,0,.53,1.94A1.86,1.86,0,0,0,385.08,153Z"/><path class="cls-7" d="M398,155l-.19-1.18a2.77,2.77,0,0,1-1.16,1,3.76,3.76,0,0,1-1.67.36,3.53,3.53,0,0,1-2.13-.63,4,4,0,0,1-1.34-1.71,6.42,6.42,0,0,1-.45-2.46,6.32,6.32,0,0,1,.46-2.49,4.13,4.13,0,0,1,1.36-1.75,3.68,3.68,0,0,1,2.21-.64,3.11,3.11,0,0,1,2.57,1.13v-4.5h2.52V155Zm-.34-3.78v-1.83a1.44,1.44,0,0,0-.6-1.29,2.34,2.34,0,0,0-1.34-.4,1.81,1.81,0,0,0-1.56.72,3.19,3.19,0,0,0-.53,1.92,3.23,3.23,0,0,0,.52,1.92,1.78,1.78,0,0,0,1.55.73,2.36,2.36,0,0,0,.94-.19,1.68,1.68,0,0,0,.73-.59A1.57,1.57,0,0,0,397.68,151.25Z"/><path class="cls-7" d="M410.82,152.21a3.17,3.17,0,0,1-.63,1.47,3.71,3.71,0,0,1-1.44,1.11,5.31,5.31,0,0,1-2.23.42,5,5,0,0,1-2.55-.6,3.75,3.75,0,0,1-1.52-1.68,5.92,5.92,0,0,1-.5-2.49,5.85,5.85,0,0,1,.52-2.54,4,4,0,0,1,1.55-1.74,4.71,4.71,0,0,1,2.52-.63,4.51,4.51,0,0,1,2.41.6,3.86,3.86,0,0,1,1.46,1.64,5.51,5.51,0,0,1,.48,2.35c0,.16,0,.32,0,.5a4.58,4.58,0,0,1-.06.47h-6.3a3,3,0,0,0,.62,1.59,1.83,1.83,0,0,0,1.45.57,2.25,2.25,0,0,0,1.15-.27,1.4,1.4,0,0,0,.65-.77Zm-4.21-4.81c-1.12,0-1.79.65-2,1.95h3.31a.57.57,0,0,0,.37-.09.44.44,0,0,0,.1-.31,1.53,1.53,0,0,0-.45-1.06A1.67,1.67,0,0,0,406.61,147.4Z"/><path class="cls-7" d="M416.44,155v-1.15a4.88,4.88,0,0,1,.51-2.34,5.11,5.11,0,0,1,1.4-1.61,11.9,11.9,0,0,1,2-1.23,7.57,7.57,0,0,0,1.62-1,1.73,1.73,0,0,0,.54-1.33,1.53,1.53,0,0,0-.43-1.1,1.6,1.6,0,0,0-1.23-.45,1.77,1.77,0,0,0-1.26.45,1.91,1.91,0,0,0-.59,1.21h-2.42a4.27,4.27,0,0,1,.31-1.35,4.09,4.09,0,0,1,.79-1.23A3.64,3.64,0,0,1,419,143a5.28,5.28,0,0,1,2-.34,4.39,4.39,0,0,1,3,1,3.62,3.62,0,0,1,.15,5.06,10,10,0,0,1-2.66,1.83,7.64,7.64,0,0,0-1.56,1,2.63,2.63,0,0,0-.82,1.38h6V155Z"/><path class="cls-7" d="M547.1,214.5V202.08h2.47l5.29,8.39v-8.39h2.55V214.5H555l-5.3-8.39v8.39Z"/><path class="cls-7" d="M564,214.68a5,5,0,0,1-2.59-.61,3.86,3.86,0,0,1-1.55-1.7,5.75,5.75,0,0,1-.52-2.51,5.89,5.89,0,0,1,.52-2.53,3.88,3.88,0,0,1,1.57-1.71A4.89,4.89,0,0,1,564,205a5,5,0,0,1,2.61.61,3.76,3.76,0,0,1,1.54,1.69,5.7,5.7,0,0,1,.52,2.52,5.76,5.76,0,0,1-.53,2.52,3.91,3.91,0,0,1-1.55,1.72A5,5,0,0,1,564,214.68Zm0-2.2a1.82,1.82,0,0,0,1.56-.7,3.15,3.15,0,0,0,.53-2,3.11,3.11,0,0,0-.53-1.94,2.1,2.1,0,0,0-3.11,0,3.17,3.17,0,0,0-.53,2,3.08,3.08,0,0,0,.53,1.93A1.83,1.83,0,0,0,564,212.48Z"/><path class="cls-7" d="M576.91,214.5l-.2-1.19a2.83,2.83,0,0,1-1.15,1,3.8,3.8,0,0,1-1.68.36,3.53,3.53,0,0,1-2.13-.63,3.91,3.91,0,0,1-1.33-1.72,6.82,6.82,0,0,1,0-5,4,4,0,0,1,1.36-1.75A3.69,3.69,0,0,1,574,205a3.1,3.1,0,0,1,2.58,1.13v-4.5h2.51V214.5Zm-.34-3.78v-1.84a1.44,1.44,0,0,0-.61-1.28,2.35,2.35,0,0,0-1.34-.41,1.83,1.83,0,0,0-1.56.72,3.2,3.2,0,0,0-.53,1.93,3.25,3.25,0,0,0,.52,1.91,1.78,1.78,0,0,0,1.55.73,2.32,2.32,0,0,0,.94-.19,1.75,1.75,0,0,0,.74-.58A1.64,1.64,0,0,0,576.57,210.72Z"/><path class="cls-7" d="M589.7,211.67a3.08,3.08,0,0,1-.63,1.47,3.67,3.67,0,0,1-1.44,1.12,5.31,5.31,0,0,1-2.23.42,4.9,4.9,0,0,1-2.54-.6,3.85,3.85,0,0,1-1.53-1.69,6.46,6.46,0,0,1,0-5,4,4,0,0,1,1.55-1.73,4.71,4.71,0,0,1,2.52-.63,4.51,4.51,0,0,1,2.41.6,3.74,3.74,0,0,1,1.46,1.64,5.51,5.51,0,0,1,.49,2.35c0,.15,0,.32,0,.5a2.85,2.85,0,0,1-.06.47h-6.3a3,3,0,0,0,.63,1.58,1.78,1.78,0,0,0,1.44.58,2.31,2.31,0,0,0,1.16-.27,1.41,1.41,0,0,0,.64-.78Zm-4.21-4.8c-1.11,0-1.79.64-2,1.94h3.31a.57.57,0,0,0,.37-.09.38.38,0,0,0,.1-.3,1.55,1.55,0,0,0-.45-1.07A1.69,1.69,0,0,0,585.49,206.87Z"/><path class="cls-7" d="M595,210.9h2.41a1.89,1.89,0,0,0,.72,1.25,2.91,2.91,0,0,0,3,0,1.41,1.41,0,0,0,.55-1.22,1.51,1.51,0,0,0-.57-1.27,2.55,2.55,0,0,0-1.59-.44H598v-1.91h1.53a2,2,0,0,0,1.38-.42,1.46,1.46,0,0,0,.47-1.14,1.37,1.37,0,0,0-.47-1.09,1.94,1.94,0,0,0-1.29-.41,1.74,1.74,0,0,0-2,1.55h-2.35a3.9,3.9,0,0,1,.5-1.75,3.65,3.65,0,0,1,1.42-1.39,4.88,4.88,0,0,1,2.47-.55,5.42,5.42,0,0,1,2.3.44,3.3,3.3,0,0,1,1.43,1.21,3.09,3.09,0,0,1,.5,1.72,2.79,2.79,0,0,1-.48,1.65,3,3,0,0,1-1.25,1.05,2.77,2.77,0,0,1,1.53,1.08,3.39,3.39,0,0,1,0,3.72,3.71,3.71,0,0,1-1.61,1.27,6,6,0,0,1-2.48.46,5.51,5.51,0,0,1-2.45-.5,3.73,3.73,0,0,1-1.55-1.35A3.91,3.91,0,0,1,595,210.9Z"/></g></svg>